<?xml version="1.0" encoding="iso-8859-1"?>
<!-- Generator: Adobe Illustrator 19.0.0, SVG Export Plug-In . SVG Version: 6.00 Build 0)  -->
<svg version="1.1" id="Layer_1" xmlns="http://www.w3.org/2000/svg" xmlns:xlink="http://www.w3.org/1999/xlink" x="0px" y="0px"
	 viewBox="0 0 512 512" style="enable-background:new 0 0 512 512;" xml:space="preserve">
<g>
	<g>
		<path d="M256,151.972c-56.436,0-102.35,45.913-102.35,102.349s45.915,102.35,102.35,102.35s102.35-45.915,102.35-102.35
			C358.35,197.886,312.436,151.972,256,151.972z"/>
	</g>
</g>
<g>
	<g>
		<path fill="currentColor" d="M488.727,192.188h-15.099c-4.881-16.342-11.414-32.361-19.025-46.584l11.205-11.371
			c8.707-8.802,8.677-23.069-0.069-31.834l-57.599-57.901c-4.225-4.236-9.962-6.961-15.943-6.961c-0.044,0-0.089,0-0.132,0
			c-6.028,0-11.79,2.833-15.997,7.15l-10.359,10.976c-14.097-7.654-29.457-14.06-45.149-18.824V22.522
			C320.561,10.084,310.478,0,298.039,0h-84.082c-12.438,0-22.522,10.084-22.522,22.522v14.309
			c-15.755,4.772-31.145,11.036-45.236,18.681L135.51,44.529c-4.216-4.276-9.967-6.992-15.973-6.992c-0.021,0-0.042,0-0.065,0
			c-5.983,0-11.722,2.665-15.949,6.904l-57.436,57.883c-8.719,8.743-8.772,22.876-0.12,31.685l11.383,11.588
			c-7.585,14.201-14.108,30.195-18.989,46.591h-15.09c-12.438,0-22.522,10.084-22.522,22.522v82.581
			c0,12.438,10.084,22.522,22.522,22.522h15.156c4.736,15.51,11.114,30.738,18.749,44.765L46.46,375.05
			c-4.311,4.213-6.754,9.977-6.781,16.004s2.362,11.814,6.633,16.066l57.599,57.333c4.275,4.254,10.094,6.647,16.106,6.558
			c6.031-0.059,11.786-2.533,15.977-6.869l10.38-10.739c13.985,7.543,29.313,13.883,45.062,18.63v17.444
			c0,12.438,10.084,22.522,22.522,22.522h84.082c12.438,0,22.522-10.084,22.522-22.522v-17.459
			c15.753-4.772,31.145-11,45.236-18.645l10.689,11.021c4.218,4.276,9.968,7.066,15.974,7.066c0.021,0,0.042,0,0.065,0
			c5.983,0,11.722-2.739,15.949-6.977l57.436-57.958c4.284-4.294,6.653-10.135,6.572-16.201c-0.08-6.064-2.604-11.841-6.998-16.021
			l-10.467-9.955c7.542-13.929,13.857-29.076,18.564-44.536h15.145c12.438,0,22.522-10.084,22.522-22.522V214.71
			C511.249,202.272,501.165,192.188,488.727,192.188z M256,394.208c-77.135,0-139.887-62.752-139.887-139.887
			c0-77.133,62.752-139.886,139.887-139.886s139.887,62.754,139.887,139.886C395.887,331.456,333.135,394.208,256,394.208z"/>
	</g>
</g>
<g>
</g>
<g>
</g>
<g>
</g>
<g>
</g>
<g>
</g>
<g>
</g>
<g>
</g>
<g>
</g>
<g>
</g>
<g>
</g>
<g>
</g>
<g>
</g>
<g>
</g>
<g>
</g>
<g>
</g>
</svg>
